REM DIRINDEX 1\2,1\4,1\5,1\6,1\7,1\3\8,1\3\9,1\3\10
REM DIRNAME cjc113,folder01,folder02,folder03,folder04,folder05,folder06,folder07,folder08,folder09
TITLE ""
FILE "DB4500_5th_6C_35.mp3" MP3
  TRACK 01 AUDIO
    TITLE "8:cjc113_4688"
    INDEX 01 00:00:00
  TRACK 02 AUDIO
    TITLE "0:"
    INDEX 01 00:01:11
  TRACK 03 AUDIO
    TITLE "9:cjc113_4689"
    INDEX 01 00:01:21
  TRACK 04 AUDIO
    TITLE "0:"
    INDEX 01 00:02:49
  TRACK 05 AUDIO
    TITLE "10:cjc113_4690"
    INDEX 01 00:02:57
  TRACK 06 AUDIO
    TITLE "0:"
    INDEX 01 00:05:01
  TRACK 07 AUDIO
    TITLE "8:cjc113_4691"
    INDEX 01 00:05:34
  TRACK 08 AUDIO
    TITLE "0:"
    INDEX 01 00:06:55
  TRACK 09 AUDIO
    TITLE "9:cjc113_4692"
    INDEX 01 00:06:63
  TRACK 10 AUDIO
    TITLE "0:"
    INDEX 01 00:08:13
  TRACK 11 AUDIO
    TITLE "10:cjc113_4693"
    INDEX 01 00:08:21
  TRACK 12 AUDIO
    TITLE "0:"
    INDEX 01 00:11:31
  TRACK 13 AUDIO
    TITLE "8:cjc113_4694"
    INDEX 01 00:11:62
  TRACK 14 AUDIO
    TITLE "0:"
    INDEX 01 00:12:71
  TRACK 15 AUDIO
    TITLE "9:cjc113_4695"
    INDEX 01 00:13:04
  TRACK 16 AUDIO
    TITLE "0:"
    INDEX 01 00:14:29
  TRACK 17 AUDIO
    TITLE "10:cjc113_4696"
    INDEX 01 00:14:37
  TRACK 18 AUDIO
    TITLE "0:"
    INDEX 01 00:16:73
  TRACK 19 AUDIO
    TITLE "8:cjc113_4697"
    INDEX 01 00:17:25
  TRACK 20 AUDIO
    TITLE "0:"
    INDEX 01 00:18:39
  TRACK 21 AUDIO
    TITLE "9:cjc113_4698"
    INDEX 01 00:18:48
  TRACK 22 AUDIO
    TITLE "0:"
    INDEX 01 00:20:02
  TRACK 23 AUDIO
    TITLE "10:cjc113_4699"
    INDEX 01 00:20:08
  TRACK 24 AUDIO
    TITLE "0:"
    INDEX 01 00:23:08
  TRACK 25 AUDIO
    TITLE "8:cjc113_4700"
    INDEX 01 00:23:40
  TRACK 26 AUDIO
    TITLE "0:"
    INDEX 01 00:24:55
  TRACK 27 AUDIO
    TITLE "9:cjc113_4701"
    INDEX 01 00:24:63
  TRACK 28 AUDIO
    TITLE "0:"
    INDEX 01 00:26:15
  TRACK 29 AUDIO
    TITLE "10:cjc113_4702"
    INDEX 01 00:26:24
  TRACK 30 AUDIO
    TITLE "0:"
    INDEX 01 00:29:29
  TRACK 31 AUDIO
    TITLE "8:cjc113_4703"
    INDEX 01 00:29:62
  TRACK 32 AUDIO
    TITLE "0:"
    INDEX 01 00:31:10
  TRACK 33 AUDIO
    TITLE "9:cjc113_4704"
    INDEX 01 00:31:18
  TRACK 34 AUDIO
    TITLE "0:"
    INDEX 01 00:32:35
  TRACK 35 AUDIO
    TITLE "10:cjc113_4705"
    INDEX 01 00:32:47
  TRACK 36 AUDIO
    TITLE "0:"
    INDEX 01 00:36:19
  TRACK 37 AUDIO
    TITLE "8:cjc113_4706"
    INDEX 01 00:36:52
  TRACK 38 AUDIO
    TITLE "0:"
    INDEX 01 00:37:63
  TRACK 39 AUDIO
    TITLE "9:cjc113_4707"
    INDEX 01 00:37:71
  TRACK 40 AUDIO
    TITLE "0:"
    INDEX 01 00:39:33
  TRACK 41 AUDIO
    TITLE "10:cjc113_4708"
    INDEX 01 00:39:41
  TRACK 42 AUDIO
    TITLE "0:"
    INDEX 01 00:41:59
  TRACK 43 AUDIO
    TITLE "8:cjc113_4709"
    INDEX 01 00:42:18
  TRACK 44 AUDIO
    TITLE "0:"
    INDEX 01 00:43:21
  TRACK 45 AUDIO
    TITLE "9:cjc113_4710"
    INDEX 01 00:43:31
  TRACK 46 AUDIO
    TITLE "0:"
    INDEX 01 00:44:38
  TRACK 47 AUDIO
    TITLE "10:cjc113_4711"
    INDEX 01 00:44:46
  TRACK 48 AUDIO
    TITLE "0:"
    INDEX 01 00:47:52
  TRACK 49 AUDIO
    TITLE "8:cjc113_4712"
    INDEX 01 00:48:06
  TRACK 50 AUDIO
    TITLE "0:"
    INDEX 01 00:49:25
  TRACK 51 AUDIO
    TITLE "9:cjc113_4713"
    INDEX 01 00:49:41
  TRACK 52 AUDIO
    TITLE "0:"
    INDEX 01 00:50:74
  TRACK 53 AUDIO
    TITLE "10:cjc113_4714"
    INDEX 01 00:51:11
  TRACK 54 AUDIO
    TITLE "0:"
    INDEX 01 00:53:33
  TRACK 55 AUDIO
    TITLE "8:cjc113_4715"
    INDEX 01 00:53:74
  TRACK 56 AUDIO
    TITLE "0:"
    INDEX 01 00:55:28
  TRACK 57 AUDIO
    TITLE "9:cjc113_4716"
    INDEX 01 00:55:38
  TRACK 58 AUDIO
    TITLE "0:"
    INDEX 01 00:57:11
  TRACK 59 AUDIO
    TITLE "10:cjc113_4717"
    INDEX 01 00:57:27
  TRACK 60 AUDIO
    TITLE "0:"
    INDEX 01 01:00:43
  TRACK 61 AUDIO
    TITLE "8:cjc113_4718"
    INDEX 01 01:01:03
  TRACK 62 AUDIO
    TITLE "0:"
    INDEX 01 01:02:20
  TRACK 63 AUDIO
    TITLE "9:cjc113_4719"
    INDEX 01 01:02:24
  TRACK 64 AUDIO
    TITLE "0:"
    INDEX 01 01:03:67
  TRACK 65 AUDIO
    TITLE "10:cjc113_4720"
    INDEX 01 01:04:03
  TRACK 66 AUDIO
    TITLE "0:"
    INDEX 01 01:06:43
  TRACK 67 AUDIO
    TITLE "8:cjc113_4721"
    INDEX 01 01:07:02
  TRACK 68 AUDIO
    TITLE "0:"
    INDEX 01 01:08:15
  TRACK 69 AUDIO
    TITLE "9:cjc113_4722"
    INDEX 01 01:08:21
  TRACK 70 AUDIO
    TITLE "0:"
    INDEX 01 01:09:40
  TRACK 71 AUDIO
    TITLE "10:cjc113_4723"
    INDEX 01 01:09:48
  TRACK 72 AUDIO
    TITLE "0:"
    INDEX 01 01:13:49
  TRACK 73 AUDIO
    TITLE "8:cjc113_4724"
    INDEX 01 01:14:17
  TRACK 74 AUDIO
    TITLE "0:"
    INDEX 01 01:15:17
  TRACK 75 AUDIO
    TITLE "9:cjc113_4725"
    INDEX 01 01:15:25
  TRACK 76 AUDIO
    TITLE "0:"
    INDEX 01 01:17:18
  TRACK 77 AUDIO
    TITLE "10:cjc113_4726"
    INDEX 01 01:17:28
  TRACK 78 AUDIO
    TITLE "0:"
    INDEX 01 01:20:10
  TRACK 79 AUDIO
    TITLE "8:cjc113_4727"
    INDEX 01 01:20:40
  TRACK 80 AUDIO
    TITLE "0:"
    INDEX 01 01:21:53
  TRACK 81 AUDIO
    TITLE "9:cjc113_4728"
    INDEX 01 01:21:63
  TRACK 82 AUDIO
    TITLE "0:"
    INDEX 01 01:23:28
  TRACK 83 AUDIO
    TITLE "10:cjc113_4729"
    INDEX 01 01:23:34
  TRACK 84 AUDIO
    TITLE "0:"
    INDEX 01 01:27:14
